<svg width="30.000000" height="30.000000" viewBox="0 0 30 30" fill="none" xmlns="http://www.w3.org/2000/svg" xmlns:xlink="http://www.w3.org/1999/xlink">
	<desc>
			Created with Pixso.
	</desc>
	<defs/>
	<path d="M28.91 1.44L22.81 0.03C22.15 -0.12 21.47 0.22 21.2 0.85L18.39 7.41C18.14 7.98 18.31 8.66 18.79 9.05L22.34 11.95C20.23 16.45 16.55 20.19 11.96 22.34L9.05 18.79C8.66 18.3 7.99 18.14 7.41 18.38L0.85 21.19C0.22 21.47 -0.12 22.15 0.03 22.81L1.44 28.91C1.58 29.54 2.15 30 2.81 30C17.81 30 30 17.84 30 2.81C30 2.15 29.54 1.58 28.91 1.44Z" fill="#001E64" fill-opacity="1.000000" fill-rule="nonzero"/>
</svg>
